<svg version="1.1" id="Layer_1" xmlns="http://www.w3.org/2000/svg" xmlns:xlink="http://www.w3.org/1999/xlink" x="0px" y="0px"
	 width="100%" viewBox="0 0 253 276" enable-background="new 0 0 253 276" xml:space="preserve">
<path fill="#FEFFFF" opacity="1.000000" stroke="none" 
	d="
M254.000000,106.000000 
	C254.000000,163.306473 254.000000,220.112930 254.000000,276.959717 
	C169.733414,276.959717 85.466805,276.959717 1.100099,276.959717 
	C1.100099,185.110321 1.100099,93.220497 1.100099,1.165335 
	C85.333069,1.165335 169.666504,1.165335 254.000000,1.165335 
	C254.000000,35.866329 254.000000,70.683167 254.000000,106.000000 
M167.566818,217.607635 
	C173.302841,208.068237 179.038864,198.528824 185.229111,188.447739 
	C191.761780,177.630341 198.294464,166.812927 205.288834,155.481277 
	C211.935608,144.349716 218.582367,133.218170 225.743622,121.551537 
	C226.034363,119.124634 226.951538,116.577202 226.511612,114.290894 
	C224.112457,101.822945 221.379364,89.419258 218.772934,76.237862 
	C218.006729,72.917038 217.173294,69.610046 216.486923,66.272797 
	C214.415710,56.202095 212.798325,46.018715 210.266251,36.066971 
	C207.001236,23.234570 191.893402,19.415689 182.831406,29.062311 
	C176.251465,36.066704 170.228134,43.593971 163.354538,51.193188 
	C160.065720,54.880993 156.776901,58.568798 153.393692,62.362446 
	C148.202042,59.224232 143.270615,56.466225 138.569885,53.359188 
	C125.583557,44.775623 113.080383,45.356339 100.226700,55.073616 
	C96.132889,57.506237 92.039070,59.938858 87.874008,62.413818 
	C78.436424,51.630322 69.507782,41.090935 60.203754,30.894062 
	C51.225975,21.054745 36.057556,24.434292 32.429638,37.001537 
	C30.922697,42.221642 30.171570,47.659931 28.749821,53.692184 
	C26.298491,64.796494 23.847162,75.900795 21.093422,87.755478 
	C19.460293,94.637947 17.958233,101.554955 16.156818,108.393089 
	C14.389068,115.103439 14.572948,121.372528 19.313530,127.655197 
	C28.848778,143.155396 38.384026,158.655594 48.044640,174.833206 
	C57.072449,189.553635 66.100258,204.274048 75.269882,219.666855 
	C81.894638,230.593826 88.746277,241.391022 95.089104,252.479263 
	C103.837570,267.772949 112.308189,268.665588 130.326111,266.364075 
	C139.576996,265.182434 143.805664,257.484314 148.144577,249.436279 
	C149.599045,247.070236 151.077469,244.718536 152.503647,242.335556 
	C157.353683,234.231735 162.185287,226.116882 167.566818,217.607635 
z"/>
<path fill="#2CB086" opacity="1.000000" stroke="none" 
	d="
M29.076740,52.999004 
	C30.171570,47.659931 30.922697,42.221642 32.429638,37.001537 
	C36.057556,24.434292 51.225975,21.054745 60.203754,30.894062 
	C69.507782,41.090935 78.436424,51.630322 87.874008,62.413818 
	C92.039070,59.938858 96.132889,57.506237 100.852356,55.199741 
	C103.700974,56.903458 105.923935,58.481045 107.942657,60.335991 
	C100.678215,64.900673 93.618027,69.187988 85.841293,73.910431 
	C84.971321,72.693466 84.286873,71.548622 83.424652,70.558609 
	C73.941269,59.669674 64.583755,48.663200 54.796677,38.053371 
	C52.847240,35.940056 49.232018,34.349346 46.374474,34.332897 
	C42.402023,34.310028 40.950245,38.060909 40.129517,41.650856 
	C39.110275,46.109077 38.013504,50.549580 36.574341,54.992996 
	C33.824547,54.325176 31.450644,53.662090 29.076740,52.999004 
z"/>
<path fill="#28B678" opacity="1.000000" stroke="none" 
	d="
M163.956619,50.888100 
	C170.228134,43.593971 176.251465,36.066704 182.831406,29.062311 
	C191.893402,19.415689 207.001236,23.234570 210.266251,36.066971 
	C212.798325,46.018715 214.415710,56.202095 216.486923,66.272797 
	C217.173294,69.610046 218.006729,72.917038 218.395508,76.608551 
	C215.333221,76.319939 212.648346,75.660645 209.768509,74.666840 
	C207.182816,62.980412 204.737000,51.639652 202.433014,40.270157 
	C201.687393,36.590752 200.349380,32.893509 196.318985,32.924892 
	C193.462387,32.947140 189.943497,34.543701 187.902359,36.606976 
	C181.478119,43.100945 175.611847,50.146877 169.348022,56.615871 
	C167.429840,54.464439 165.693222,52.676266 163.956619,50.888100 
z"/>
<path fill="#34A1A6" opacity="1.000000" stroke="none" 
	d="
M147.693924,249.988724 
	C143.805664,257.484314 139.576996,265.182434 130.326111,266.364075 
	C112.308189,268.665588 103.837570,267.772949 95.089104,252.479263 
	C88.746277,241.391022 81.894638,230.593826 75.589897,219.332932 
	C78.974327,219.253632 82.038742,219.508255 85.382782,219.966766 
	C91.868965,230.360733 98.054382,240.563797 104.288536,250.736969 
	C109.538673,259.304352 126.239044,262.001099 133.690887,255.238113 
	C136.197922,252.962830 137.858932,249.755356 140.264709,247.012390 
	C142.979858,248.030121 145.336884,249.009430 147.693924,249.988724 
z"/>
<path fill="#2AB280" opacity="1.000000" stroke="none" 
	d="
M163.655579,51.040642 
	C165.693222,52.676266 167.429840,54.464439 169.188538,56.878914 
	C164.566132,62.830650 159.921616,68.156097 155.175797,73.597702 
	C148.011017,69.258865 141.192337,65.485252 134.755737,61.145054 
	C125.983253,55.229767 117.278252,54.063709 108.146904,60.058632 
	C105.923935,58.481045 103.700974,56.903458 101.194641,55.139603 
	C113.080383,45.356339 125.583557,44.775623 138.569885,53.359188 
	C143.270615,56.466225 148.202042,59.224232 153.393692,62.362446 
	C156.776901,58.568798 160.065720,54.880993 163.655579,51.040642 
z"/>
<path fill="#31A69B" opacity="1.000000" stroke="none" 
	d="
M47.919273,174.155792 
	C38.384026,158.655594 28.848778,143.155396 19.630226,127.326271 
	C21.462275,127.406532 22.960045,128.041351 24.497938,128.161179 
	C26.022581,128.279968 27.587652,127.879860 29.415882,127.913406 
	C39.110722,143.750748 48.524673,159.382034 57.631584,175.149017 
	C55.647701,174.900177 53.987236,174.387360 52.288982,174.170486 
	C50.855167,173.987396 49.377522,174.147568 47.919273,174.155792 
z"/>
<path fill="#32A3A0" opacity="1.000000" stroke="none" 
	d="
M47.981956,174.494507 
	C49.377522,174.147568 50.855167,173.987396 52.288982,174.170486 
	C53.987236,174.387360 55.647701,174.900177 57.894615,175.364151 
	C67.344177,190.216675 76.223663,204.989777 85.103149,219.762878 
	C82.038742,219.508255 78.974327,219.253632 75.518982,218.996735 
	C66.100258,204.274048 57.072449,189.553635 47.981956,174.494507 
z"/>
<path fill="#2AB37F" opacity="1.000000" stroke="none" 
	d="
M209.963470,75.001343 
	C212.648346,75.660645 215.333221,76.319939 218.389603,76.986351 
	C221.379364,89.419258 224.112457,101.822945 226.511612,114.290894 
	C226.951538,116.577202 226.034363,119.124634 225.095123,121.791702 
	C222.257309,120.934845 220.067963,119.837814 217.893814,118.328278 
	C217.723358,116.116638 217.672745,114.291351 217.330368,112.522545 
	C214.908279,100.008987 212.426346,87.507011 209.963470,75.001343 
z"/>
<path fill="#2EA994" opacity="1.000000" stroke="none" 
	d="
M29.134991,127.707352 
	C27.587652,127.879860 26.022581,128.279968 24.497938,128.161179 
	C22.960045,128.041351 21.462275,127.406532 19.558144,126.994629 
	C14.572948,121.372528 14.389068,115.103439 16.156818,108.393089 
	C17.958233,101.554955 19.460293,94.637947 21.612080,87.389572 
	C24.580303,87.729271 27.029869,88.434875 29.423542,89.553619 
	C28.435986,94.333534 27.982803,98.874039 26.473534,103.031120 
	C23.283701,111.817093 22.887945,120.054749 29.134991,127.707352 
z"/>
<path fill="#2DAF88" opacity="1.000000" stroke="none" 
	d="
M217.878616,118.740784 
	C220.067963,119.837814 222.257309,120.934845 224.837891,122.059235 
	C218.582367,133.218170 211.935608,144.349716 204.698868,155.732941 
	C202.031723,154.565430 199.954529,153.146240 197.944611,151.393921 
	C204.634109,140.287445 211.256363,129.514114 217.878616,118.740784 
z"/>
<path fill="#2EAB90" opacity="1.000000" stroke="none" 
	d="
M197.877350,151.727051 
	C199.954529,153.146240 202.031723,154.565430 204.468018,155.990051 
	C198.294464,166.812927 191.761780,177.630341 184.660294,188.673706 
	C182.006714,187.484604 179.921951,186.069534 177.911560,184.322449 
	C184.616394,173.235962 191.246872,162.481506 197.877350,151.727051 
z"/>
<path fill="#32A49E" opacity="1.000000" stroke="none" 
	d="
M147.919250,249.712494 
	C145.336884,249.009430 142.979858,248.030121 140.335876,246.668106 
	C146.690109,235.521072 153.331253,224.756760 160.277954,214.138306 
	C162.730286,215.524872 164.877090,216.765564 167.023911,218.006241 
	C162.185287,226.116882 157.353683,234.231735 152.503647,242.335556 
	C151.077469,244.718536 149.599045,247.070236 147.919250,249.712494 
z"/>
<path fill="#2EAD8D" opacity="1.000000" stroke="none" 
	d="
M29.479435,89.140488 
	C27.029869,88.434875 24.580303,87.729271 21.763287,87.014381 
	C23.847162,75.900795 26.298491,64.796494 28.913280,53.345596 
	C31.450644,53.662090 33.824547,54.325176 36.601418,55.396584 
	C34.496067,66.916763 31.987751,78.028625 29.479435,89.140488 
z"/>
<path fill="#31A897" opacity="1.000000" stroke="none" 
	d="
M167.295364,217.806946 
	C164.877090,216.765564 162.730286,215.524872 160.352081,213.797272 
	C166.026184,203.758392 171.931686,194.206436 177.837189,184.654480 
	C179.921951,186.069534 182.006714,187.484604 184.433167,188.944534 
	C179.038864,198.528824 173.302841,208.068237 167.295364,217.806946 
z"/>
<path fill="#F9FDFC" opacity="1.000000" stroke="none" 
	d="
M177.911560,184.322449 
	C171.931686,194.206436 166.026184,203.758392 160.046539,213.651398 
	C153.331253,224.756760 146.690109,235.521072 139.977783,246.629669 
	C137.858932,249.755356 136.197922,252.962830 133.690887,255.238113 
	C126.239044,262.001099 109.538673,259.304352 104.288536,250.736969 
	C98.054382,240.563797 91.868965,230.360733 85.382782,219.966751 
	C76.223663,204.989777 67.344177,190.216675 58.201656,175.228439 
	C48.524673,159.382034 39.110722,143.750748 29.415882,127.913414 
	C22.887945,120.054749 23.283701,111.817093 26.473534,103.031120 
	C27.982803,98.874039 28.435986,94.333534 29.423542,89.553619 
	C31.987751,78.028625 34.496067,66.916763 36.977303,55.401318 
	C38.013504,50.549580 39.110275,46.109077 40.129517,41.650856 
	C40.950245,38.060909 42.402023,34.310028 46.374474,34.332897 
	C49.232018,34.349346 52.847240,35.940056 54.796677,38.053371 
	C64.583755,48.663200 73.941269,59.669674 83.424652,70.558609 
	C84.286873,71.548622 84.971321,72.693466 85.841293,73.910431 
	C93.618027,69.187988 100.678215,64.900673 107.942657,60.335991 
	C117.278252,54.063709 125.983253,55.229767 134.755737,61.145054 
	C141.192337,65.485252 148.011017,69.258865 155.175797,73.597702 
	C159.921616,68.156097 164.566132,62.830650 169.370117,57.242172 
	C175.611847,50.146877 181.478119,43.100945 187.902359,36.606976 
	C189.943497,34.543701 193.462387,32.947140 196.318985,32.924892 
	C200.349380,32.893509 201.687393,36.590752 202.433014,40.270157 
	C204.737000,51.639652 207.182816,62.980412 209.768524,74.666840 
	C212.426346,87.507011 214.908279,100.008987 217.330368,112.522545 
	C217.672745,114.291351 217.723358,116.116638 217.893814,118.328285 
	C211.256363,129.514114 204.634109,140.287445 197.944595,151.393921 
	C191.246872,162.481506 184.616394,173.235962 177.911560,184.322449 
M42.208031,68.531219 
	C40.845455,75.020386 39.482880,81.509560 37.833912,88.729218 
	C36.547646,94.819366 35.261375,100.909523 33.570351,107.651131 
	C32.594238,111.656044 31.166824,115.569473 33.765102,119.626785 
	C39.576389,128.701324 45.210880,137.889084 51.062607,147.715790 
	C63.742786,168.706085 76.422966,189.696365 89.103149,210.686661 
	C90.046738,199.878967 90.084419,189.574722 90.003212,179.271393 
	C89.991951,177.843582 89.719810,176.227356 89.010651,175.028214 
	C85.808731,169.613968 82.406136,164.318390 78.924377,158.295944 
	C77.086411,155.340149 75.248444,152.384369 73.348976,149.329681 
	C81.869354,149.329681 89.806190,149.329681 98.368591,149.329681 
	C98.368591,157.078094 98.368591,164.534698 98.192078,172.914734 
	C98.178879,188.680038 98.278023,204.446762 98.077621,220.209686 
	C98.024025,224.424850 98.856537,228.038315 101.898300,231.817474 
	C106.425247,238.604462 109.233971,246.672501 116.556618,252.644287 
	C116.556618,246.327347 116.556618,241.242126 116.665054,235.233429 
	C116.630402,216.485001 116.595741,197.736557 116.751358,178.071899 
	C116.688118,165.048111 116.624878,152.024307 116.748566,138.080353 
	C116.686958,125.721733 116.625343,113.363121 116.752396,100.084053 
	C116.752396,88.686348 116.752396,77.288643 116.752396,64.195328 
	C105.343544,71.285995 95.160461,77.614838 84.291672,84.081375 
	C76.475716,88.906197 68.659760,93.731018 60.170036,98.822617 
	C58.273216,99.873642 56.376400,100.924667 53.947803,102.270348 
	C54.358482,99.384178 54.670441,97.191811 55.228722,94.240921 
	C56.218918,90.335609 57.209114,86.430305 58.360039,81.891083 
	C60.169216,84.099449 61.616978,85.866653 63.220005,87.823387 
	C66.429604,85.707565 69.028595,83.994278 72.267548,82.125130 
	C74.512177,80.783333 76.756805,79.441528 79.458984,77.826225 
	C69.159508,66.108505 59.204514,54.782703 49.249512,43.456898 
	C48.731373,43.598949 48.213234,43.741005 47.695095,43.883057 
	C45.993916,51.887985 44.292732,59.892914 42.208031,68.531219 
M144.181061,224.394943 
	C148.537338,216.969574 152.893600,209.544205 157.886139,201.883789 
	C163.611816,192.597198 169.337494,183.310623 175.617172,173.612488 
	C176.551651,172.086731 177.482590,170.558807 178.421204,169.035599 
	C184.759750,158.749100 186.333618,158.376709 177.702515,150.142578 
	C177.563492,150.009949 177.718445,149.569168 177.750671,149.030579 
	C179.202103,149.030579 180.697571,148.841934 182.129349,149.063965 
	C187.671356,149.923401 191.396225,147.718063 193.611511,142.655502 
	C194.140320,141.447052 194.876205,140.329208 195.978378,138.681915 
	C198.310455,134.927155 200.385971,130.979889 203.028320,127.457901 
	C208.438110,120.247131 211.296875,112.758789 207.158081,103.130096 
	C203.044464,82.910896 198.930832,62.691692 194.817215,42.472492 
	C194.258621,42.388409 193.700027,42.304325 193.141434,42.220245 
	C182.882523,53.913925 172.623611,65.607605 161.974518,77.746048 
	C167.461044,81.088585 172.628326,84.236649 177.858353,87.422928 
	C179.968948,85.183693 181.738754,83.306023 183.793304,81.126244 
	C185.203720,86.913261 186.493225,92.204132 187.730606,98.265953 
	C187.730606,99.500366 187.730606,100.734772 187.730606,102.548180 
	C166.797165,89.831238 146.326416,77.395370 125.116791,64.510651 
	C125.116791,78.367958 125.116791,90.683372 124.962181,103.925301 
	C125.014641,115.949989 125.067101,127.974686 124.965363,140.925888 
	C125.015930,149.283661 125.066490,157.641449 124.962677,166.925034 
	C125.014145,173.283310 125.065613,179.641602 124.965790,186.926712 
	C125.016533,197.283432 125.067284,207.640167 124.964554,218.923904 
	C124.964554,229.776230 124.964554,240.628555 124.964554,251.480896 
	C125.450424,251.684143 125.936302,251.887405 126.422173,252.090652 
	C133.431274,243.895874 138.230545,234.174591 144.181061,224.394943 
z"/>
<path fill="#28AF84" opacity="1.000000" stroke="none" 
	d="
M207.131882,103.954147 
	C211.296875,112.758789 208.438110,120.247131 203.028320,127.457901 
	C200.385971,130.979889 198.310455,134.927155 195.348846,138.862305 
	C189.390717,136.321014 184.062103,133.599319 178.964752,130.618561 
	C180.858490,127.765930 182.520996,125.172356 184.427689,122.197838 
	C170.793243,113.897209 157.459488,105.779633 142.995026,96.973679 
	C142.995026,102.514267 142.995026,106.756927 142.617981,110.994431 
	C136.532883,108.325775 130.824844,105.662277 125.116791,102.998779 
	C125.116791,90.683372 125.116791,78.367958 125.116791,64.510651 
	C146.326416,77.395370 166.797165,89.831238 187.730606,102.548180 
	C187.730606,100.734772 187.730606,99.500366 187.942932,97.544922 
	C190.493546,97.462440 192.909195,97.903564 195.153229,98.782730 
	C199.200272,100.368286 203.144638,102.215958 207.131882,103.954147 
z"/>
<path fill="#2CA793" opacity="1.000000" stroke="none" 
	d="
M50.917381,147.030731 
	C45.210880,137.889084 39.576389,128.701324 33.765102,119.626785 
	C31.166824,115.569473 32.594238,111.656044 34.134804,107.361191 
	C42.353191,111.006401 50.019016,114.918892 57.638638,118.919395 
	C58.253098,119.241997 58.550144,120.169167 58.723969,121.089340 
	C57.943470,126.026840 61.486221,130.663559 65.699051,130.697586 
	C76.357048,130.783691 87.015579,130.804932 98.049988,130.912994 
	C99.865463,131.714264 101.268196,132.539642 102.751068,133.179214 
	C107.338196,135.157684 111.955841,137.065353 116.561646,139.000519 
	C116.624878,152.024307 116.688118,165.048111 116.308228,178.523224 
	C114.071815,178.235260 112.286331,177.476318 110.483643,176.760727 
	C106.449844,175.159485 102.407471,173.579788 98.368591,171.991318 
	C98.368591,164.534698 98.368591,157.078094 98.368591,149.329681 
	C89.806190,149.329681 81.869354,149.329681 73.348976,149.329681 
	C75.248444,152.384369 77.086411,155.340149 78.601776,158.643448 
	C74.977356,157.627350 71.647797,156.326706 68.379807,154.886368 
	C62.539413,152.312271 56.736160,149.653885 50.917381,147.030731 
z"/>
<path fill="#29AA8B" opacity="1.000000" stroke="none" 
	d="
M125.039490,103.462036 
	C130.824844,105.662277 136.532883,108.325775 142.707657,111.455833 
	C143.174377,118.026451 143.174377,124.130501 143.174377,130.877625 
	C155.485123,130.877625 167.109314,130.877625 178.733490,130.877625 
	C184.062103,133.599319 189.390717,136.321014 195.118103,139.106201 
	C194.876205,140.329208 194.140320,141.447052 193.611511,142.655502 
	C191.396225,147.718063 187.671356,149.923401 182.129349,149.063965 
	C180.697571,148.841934 179.202103,149.030579 177.750671,149.030579 
	C177.718445,149.569168 177.563492,150.009949 177.702515,150.142578 
	C186.333618,158.376709 184.759750,158.749100 178.421204,169.035599 
	C177.482590,170.558807 176.551651,172.086731 174.975494,173.777191 
	C169.498657,170.843582 164.663513,167.745300 159.896286,164.316742 
	C160.036087,162.555084 160.552795,160.962646 160.102936,159.720154 
	C158.146530,154.316528 149.312790,148.890671 142.976776,149.001129 
	C136.798340,145.907135 130.958954,142.953247 125.119553,139.999374 
	C125.067101,127.974686 125.014641,115.949989 125.039490,103.462036 
z"/>
<path fill="#27B27D" opacity="1.000000" stroke="none" 
	d="
M207.144989,103.542130 
	C203.144638,102.215958 199.200272,100.368286 195.153229,98.782730 
	C192.909195,97.903564 190.493546,97.462440 187.968994,97.159439 
	C186.493225,92.204132 185.203720,86.913261 183.793304,81.126244 
	C181.738754,83.306023 179.968948,85.183693 177.858353,87.422928 
	C172.628326,84.236649 167.461044,81.088585 161.974518,77.746048 
	C172.623611,65.607605 182.882523,53.913925 193.141434,42.220245 
	C193.700027,42.304325 194.258621,42.388409 194.817215,42.472492 
	C198.930832,62.691692 203.044464,82.910896 207.144989,103.542130 
z"/>
<path fill="#29AB8B" opacity="1.000000" stroke="none" 
	d="
M116.655106,138.540436 
	C111.955841,137.065353 107.338196,135.157684 102.751068,133.179214 
	C101.268196,132.539642 99.865463,131.714264 98.193130,130.473358 
	C97.960182,119.368324 97.960182,108.763771 97.960182,97.468033 
	C90.143005,102.083435 83.130104,106.223976 76.056427,109.995636 
	C72.287834,107.398605 68.485229,105.309654 64.915291,102.878975 
	C63.317616,101.791176 62.186596,100.017998 60.843803,98.555840 
	C68.659760,93.731018 76.475716,88.906197 84.783127,84.323692 
	C95.041473,90.027153 104.801598,95.500519 114.594246,100.915070 
	C115.109657,101.200043 115.900902,100.986145 116.563728,101.004501 
	C116.625343,113.363121 116.686958,125.721733 116.655106,138.540436 
z"/>
<path fill="#2CA39A" opacity="1.000000" stroke="none" 
	d="
M98.280334,172.453033 
	C102.407471,173.579788 106.449844,175.159485 110.483643,176.760727 
	C112.286331,177.476318 114.071815,178.235260 116.213089,178.981339 
	C116.595741,197.736557 116.630402,216.485001 116.169769,235.648468 
	C113.102791,235.168427 110.527763,234.282745 107.960449,233.375259 
	C105.878372,232.639297 103.805565,231.877121 101.728653,231.126556 
	C98.856537,228.038315 98.024025,224.424850 98.077621,220.209686 
	C98.278023,204.446762 98.178879,188.680038 98.280334,172.453033 
z"/>
<path fill="#2CA794" opacity="1.000000" stroke="none" 
	d="
M159.828384,164.647003 
	C164.663513,167.745300 169.498657,170.843582 174.698486,173.982971 
	C169.337494,183.310623 163.611816,192.597198 157.228851,201.856323 
	C146.086731,196.552536 135.601898,191.276199 125.117081,185.999878 
	C125.065613,179.641602 125.014145,173.283310 125.400536,166.507904 
	C131.554871,168.393753 137.271332,170.696747 143.075256,173.460266 
	C143.162704,179.007507 143.162704,184.094208 143.162704,189.180923 
	C143.513596,189.199280 143.864471,189.217636 144.215363,189.235992 
	C149.419693,181.039658 154.624039,172.843323 159.828384,164.647003 
z"/>
<path fill="#2FA49B" opacity="1.000000" stroke="none" 
	d="
M50.989994,147.373260 
	C56.736160,149.653885 62.539413,152.312271 68.379807,154.886368 
	C71.647797,156.326706 74.977356,157.627350 78.677505,158.985504 
	C82.406136,164.318390 85.808731,169.613968 89.010651,175.028214 
	C89.719810,176.227356 89.991951,177.843582 90.003212,179.271393 
	C90.084419,189.574722 90.046738,199.878967 89.103149,210.686661 
	C76.422966,189.696365 63.742786,168.706085 50.989994,147.373260 
z"/>
<path fill="#2DA499" opacity="1.000000" stroke="none" 
	d="
M125.041435,186.463287 
	C135.601898,191.276199 146.086731,196.552536 156.910706,201.973846 
	C152.893600,209.544205 148.537338,216.969574 143.622070,224.695084 
	C141.580429,224.447357 140.087631,223.925247 138.617004,223.346771 
	C134.112778,221.575104 129.617065,219.781784 125.118027,217.996887 
	C125.067284,207.640167 125.016533,197.283432 125.041435,186.463287 
z"/>
<path fill="#2BA990" opacity="1.000000" stroke="none" 
	d="
M60.506920,98.689224 
	C62.186596,100.017998 63.317616,101.791176 64.915291,102.878975 
	C68.485229,105.309654 72.287834,107.398605 75.848663,110.247787 
	C70.132675,114.184341 64.563675,117.499870 58.994686,120.815399 
	C58.550144,120.169167 58.253098,119.241997 57.638638,118.919395 
	C50.019016,114.918892 42.353191,111.006401 34.337185,107.035461 
	C35.261375,100.909523 36.547646,94.819366 38.343811,88.370461 
	C40.481857,88.737556 42.102787,89.480141 43.739597,90.185890 
	C47.483074,91.799973 51.234310,93.396049 54.982399,94.999443 
	C54.670441,97.191811 54.358482,99.384178 53.947803,102.270348 
	C56.376400,100.924667 58.273216,99.873642 60.506920,98.689224 
z"/>
<path fill="#28AD85" opacity="1.000000" stroke="none" 
	d="
M116.658066,100.544273 
	C115.900902,100.986145 115.109657,101.200043 114.594246,100.915070 
	C104.801598,95.500519 95.041473,90.027153 85.125977,84.254845 
	C95.160461,77.614838 105.343544,71.285995 116.752396,64.195328 
	C116.752396,77.288643 116.752396,88.686348 116.658066,100.544273 
z"/>
<path fill="#2AAD88" opacity="1.000000" stroke="none" 
	d="
M42.591553,67.897842 
	C44.292732,59.892914 45.993916,51.887985 47.695095,43.883057 
	C48.213234,43.741005 48.731373,43.598949 49.249512,43.456898 
	C59.204514,54.782703 69.159508,66.108505 79.458984,77.826225 
	C76.756805,79.441528 74.512177,80.783333 71.573395,82.048965 
	C61.450008,77.281151 52.020779,72.589493 42.591553,67.897842 
z"/>
<path fill="#2AA791" opacity="1.000000" stroke="none" 
	d="
M142.987793,172.999741 
	C137.271332,170.696747 131.554871,168.393753 125.477722,166.044983 
	C125.066490,157.641449 125.015930,149.283661 125.042458,140.462631 
	C130.958954,142.953247 136.798340,145.907135 142.940826,149.458405 
	C143.158539,157.703781 143.073166,165.351761 142.987793,172.999741 
z"/>
<path fill="#2AAB8B" opacity="1.000000" stroke="none" 
	d="
M42.399792,68.214531 
	C52.020779,72.589493 61.450008,77.281151 71.253410,82.126892 
	C69.028595,83.994278 66.429604,85.707565 63.220005,87.823387 
	C61.616978,85.866653 60.169216,84.099449 58.360039,81.891083 
	C57.209114,86.430305 56.218918,90.335609 55.105560,94.620178 
	C51.234310,93.396049 47.483074,91.799973 43.739597,90.185890 
	C42.102787,89.480141 40.481857,88.737556 38.487007,88.005219 
	C39.482880,81.509560 40.845455,75.020386 42.399792,68.214531 
z"/>
<path fill="#2FA29F" opacity="1.000000" stroke="none" 
	d="
M125.041290,218.460388 
	C129.617065,219.781784 134.112778,221.575104 138.617004,223.346771 
	C140.087631,223.925247 141.580429,224.447357 143.438385,224.994995 
	C138.230545,234.174591 133.431274,243.895874 126.422173,252.090652 
	C125.936302,251.887405 125.450424,251.684143 124.964554,251.480896 
	C124.964554,240.628555 124.964554,229.776230 125.041290,218.460388 
z"/>
<path fill="#42ABA7" opacity="1.000000" stroke="none" 
	d="
M101.813477,231.472015 
	C103.805565,231.877121 105.878372,232.639297 107.960449,233.375259 
	C110.527763,234.282745 113.102791,235.168427 116.115555,236.110199 
	C116.556618,241.242126 116.556618,246.327347 116.556618,252.644287 
	C109.233971,246.672501 106.425247,238.604462 101.813477,231.472015 
z"/>
<path fill="#F7FCFB" opacity="1.000000" stroke="none" 
	d="
M178.964752,130.618561 
	C167.109314,130.877625 155.485123,130.877625 143.174377,130.877625 
	C143.174377,124.130501 143.174377,118.026451 143.084702,111.460991 
	C142.995026,106.756927 142.995026,102.514267 142.995026,96.973679 
	C157.459488,105.779633 170.793243,113.897209 184.427689,122.197838 
	C182.520996,125.172356 180.858490,127.765930 178.964752,130.618561 
z"/>
<path fill="#FAFDFC" opacity="1.000000" stroke="none" 
	d="
M58.723965,121.089340 
	C64.563675,117.499870 70.132675,114.184341 75.909431,110.616669 
	C83.130104,106.223976 90.143005,102.083435 97.960182,97.468033 
	C97.960182,108.763771 97.960182,119.368324 97.817039,130.412506 
	C87.015579,130.804932 76.357048,130.783691 65.699051,130.697586 
	C61.486221,130.663559 57.943470,126.026840 58.723965,121.089340 
z"/>
<path fill="#F4FBFA" opacity="1.000000" stroke="none" 
	d="
M143.075256,173.460266 
	C143.073166,165.351761 143.158539,157.703781 143.279861,149.598511 
	C149.312790,148.890671 158.146530,154.316528 160.102936,159.720154 
	C160.552795,160.962646 160.036087,162.555084 159.896286,164.316742 
	C154.624039,172.843323 149.419693,181.039658 144.215363,189.235992 
	C143.864471,189.217636 143.513596,189.199280 143.162704,189.180923 
	C143.162704,184.094208 143.162704,179.007507 143.075256,173.460266 
z"/>
</svg>