 <svg xmlns="http://www.w3.org/2000/svg"  fill="none" viewBox="0 0 270.000000 300.000000">
 <g transform="translate(0.000000,300.000000) scale(0.100000,-0.100000)" fill="#25aa8d" stroke="none"> <path d="M2220 2960 c-8 -5 -25 -10 -38 -10 -14 0 -42 -21 -77 -57 -30 -32 -90 -96 -134 -142 -45 -47 -81 -88 -81 -93 0 -9 -31 -46 -96 -115 -43 -46 -81 -56 -104 -28 -7 8 -20 15 -30 15 -10 0 -20 7 -24 15 -3 8 -14 15 -23 15 -10 0 -33 14 -51 30 -18 17 -41 30 -52 30 -10 0 -20 7 -24 15 -3 9 -18 15 -34 15 -16 0 -35 7 -42 15 -16 20 -118 20 -157 1 -15 -8 -49 -24 -75 -36 -26 -11 -50 -25 -53 -31 -4 -5 -14 -9 -25 -9 -10 0 -20 -6 -23 -13 -2 -7 -25 -23 -51 -35 -25 -13 -46 -28 -46 -33 0 -6 -19 -9 -42 -7 -35 2 -45 8 -56 31 -7 15 -17 27 -23 27 -5 0 -9 4 -9 9 0 6 -33 43 -73 83 -40 40 -94 102 -121 137 -59 76 -112 131 -129 131 -7 0 -21 7 -31 15 -67 51 -225 -37 -226 -126 0 -19 -7 -44 -15 -55 -8 -10 -15 -38 -15 -60 0 -23 -7 -58 -15 -77 -8 -20 -15 -56 -15 -80 0 -27 -6 -49 -15 -57 -9 -7 -15 -29 -15 -55 0 -23 -7 -59 -15 -78 -8 -20 -15 -54 -15 -75 0 -21 -7 -47 -15 -58 -8 -10 -15 -40 -15 -65 0 -26 -7 -60 -15 -75 -8 -16 -15 -47 -15 -70 0 -22 -7 -49 -15 -60 -20 -27 -20 -147 0 -164 8 -7 15 -18 15 -25 0 -7 7 -18 15 -25 8 -7 15 -20 15 -30 0 -10 7 -20 15 -24 8 -3 15 -13 15 -23 1 -10 14 -34 30 -53 17 -19 30 -42 30 -51 0 -9 7 -19 15 -23 8 -3 15 -14 15 -25 0 -11 6 -24 13 -28 18 -11 47 -59 47 -78 0 -8 5 -15 10 -15 6 0 16 -12 23 -27 6 -16 16 -33 22 -40 5 -7 16 -19 22 -27 7 -8 13 -24 13 -35 0 -10 7 -21 15 -24 8 -3 23 -26 35 -52 11 -25 25 -45 30 -45 6 0 10 -11 10 -24 0 -13 6 -26 14 -29 8 -3 22 -23 32 -44 10 -21 24 -42 31 -46 7 -4 13 -16 13 -25 1 -9 14 -33 30 -52 17 -19 30 -42 30 -51 0 -9 7 -19 15 -23 8 -3 15 -13 15 -23 1 -10 14 -34 30 -53 17 -19 30 -42 30 -52 0 -10 5 -18 10 -18 6 0 16 -12 23 -28 6 -15 16 -32 22 -39 5 -7 16 -19 23 -27 6 -8 12 -24 12 -35 0 -11 4 -21 9 -23 16 -5 81 -109 81 -128 0 -10 6 -20 14 -23 8 -3 22 -23 32 -44 10 -21 24 -42 31 -46 7 -4 13 -16 13 -25 1 -9 14 -33 30 -52 17 -19 30 -41 30 -50 0 -8 9 -21 20 -28 11 -7 20 -18 20 -25 0 -14 35 -47 50 -47 5 0 16 -10 24 -22 15 -21 23 -22 158 -23 127 0 147 2 174 20 49 31 104 83 104 98 0 7 13 28 30 47 16 19 29 43 30 53 0 10 7 20 15 23 8 4 15 13 15 21 0 8 13 32 30 53 16 21 30 45 30 54 0 9 4 16 9 16 5 0 20 21 33 46 12 26 28 49 35 51 7 3 13 15 13 28 0 13 7 25 15 29 8 3 15 12 15 21 0 8 4 15 9 15 5 0 14 14 20 30 5 17 15 30 20 30 6 0 11 8 11 19 0 10 7 24 15 31 8 7 15 19 15 26 0 8 4 14 10 14 5 0 12 11 16 24 3 14 12 27 20 30 8 3 14 13 14 22 0 9 14 33 30 54 17 21 30 45 30 53 0 8 7 17 15 21 8 3 15 12 15 19 0 8 14 33 30 55 17 23 30 49 30 57 0 8 4 15 9 15 5 0 20 21 33 46 12 26 28 49 35 51 7 3 13 16 13 29 0 13 4 24 9 24 5 0 20 21 33 46 12 26 28 49 35 51 7 3 13 11 13 19 0 8 14 33 30 56 17 22 30 47 30 53 0 7 7 15 15 19 8 3 15 13 15 22 0 9 14 33 30 54 17 21 30 45 30 54 0 9 5 16 10 16 6 0 14 10 19 23 5 12 21 39 35 60 14 21 26 42 26 47 0 4 8 22 17 39 17 29 17 33 0 79 -9 28 -17 70 -17 94 0 24 -7 53 -15 64 -8 10 -15 38 -15 62 0 23 -7 59 -15 79 -8 19 -15 57 -15 82 0 26 -7 56 -15 67 -8 10 -15 38 -15 60 0 23 -7 61 -15 84 -8 23 -15 61 -15 84 0 23 -6 50 -14 61 -8 11 -16 43 -18 70 -5 60 -24 136 -47 186 -16 37 -51 62 -103 73 -14 3 -32 8 -40 11 -7 3 -20 0 -28 -5z m74 -71 c43 -25 76 -90 76 -150 1 -24 7 -55 15 -69 8 -14 15 -47 15 -75 0 -27 7 -59 15 -69 8 -11 15 -39 15 -63 0 -24 7 -60 15 -80 8 -19 15 -56 15 -82 0 -25 7 -55 15 -65 8 -11 15 -39 15 -63 0 -24 7 -60 15 -80 8 -19 15 -54 15 -77 1 -22 7 -52 15 -66 8 -14 14 -51 15 -83 0 -48 -5 -64 -30 -99 -17 -22 -30 -47 -30 -53 0 -7 -7 -15 -15 -19 -8 -3 -15 -12 -15 -19 0 -8 -13 -33 -30 -55 -16 -23 -30 -48 -30 -56 0 -8 -7 -16 -15 -20 -8 -3 -15 -13 -15 -22 0 -9 -13 -33 -30 -54 -16 -21 -30 -45 -30 -54 0 -9 -4 -16 -9 -16 -5 0 -20 -21 -33 -46 -12 -26 -28 -49 -35 -51 -7 -3 -13 -13 -13 -23 0 -11 -5 -22 -11 -25 -5 -4 -14 -17 -20 -28 -14 -33 -33 -61 -46 -70 -7 -4 -13 -15 -13 -24 0 -8 -13 -32 -30 -53 -16 -21 -30 -45 -30 -53 0 -8 -7 -17 -15 -21 -8 -3 -15 -13 -15 -22 0 -9 -13 -33 -30 -54 -16 -21 -30 -45 -30 -53 0 -8 -7 -17 -15 -21 -8 -3 -15 -13 -15 -22 0 -9 -13 -33 -30 -54 -16 -21 -30 -45 -30 -54 0 -9 -4 -16 -9 -16 -5 0 -20 -21 -33 -46 -12 -26 -28 -49 -35 -51 -7 -3 -13 -16 -13 -29 0 -13 -4 -24 -9 -24 -5 0 -20 -21 -33 -46 -12 -26 -28 -49 -35 -51 -7 -3 -13 -16 -13 -29 0 -13 -4 -24 -9 -24 -5 0 -20 -21 -33 -46 -12 -26 -28 -49 -35 -51 -7 -3 -13 -13 -13 -23 0 -11 -13 -34 -30 -52 -16 -18 -30 -39 -30 -47 0 -18 -63 -79 -109 -104 -48 -27 -201 -30 -229 -4 -10 9 -25 17 -33 17 -18 0 -69 51 -69 68 0 7 -9 21 -20 32 -11 11 -20 27 -20 35 0 8 -4 15 -10 15 -5 0 -10 7 -10 15 0 9 -7 18 -15 21 -8 4 -15 16 -15 29 0 13 -6 25 -12 28 -7 3 -22 22 -33 43 -11 22 -25 43 -32 47 -7 4 -13 16 -13 26 0 10 -7 24 -15 31 -9 7 -23 29 -32 49 -9 20 -23 40 -30 44 -7 4 -13 16 -13 25 -1 9 -14 33 -30 52 -17 19 -30 42 -30 51 0 9 -7 19 -15 23 -8 3 -15 12 -15 20 0 8 -6 21 -13 28 -22 23 -47 67 -47 83 0 8 -5 15 -11 15 -5 0 -15 14 -20 30 -6 17 -15 30 -20 30 -5 0 -9 7 -9 15 0 9 -7 18 -15 21 -8 4 -15 16 -15 29 0 13 -6 25 -13 28 -7 2 -23 25 -35 51 -13 25 -28 46 -33 46 -5 0 -9 11 -9 24 0 13 -6 26 -13 29 -7 2 -23 25 -35 51 -13 25 -28 46 -33 46 -5 0 -9 8 -9 18 -1 9 -14 33 -30 52 -17 19 -30 42 -30 51 0 9 -7 19 -15 23 -8 3 -15 13 -15 22 0 9 -14 33 -30 54 -17 21 -30 45 -30 53 0 8 -7 17 -15 21 -8 3 -15 15 -15 26 0 11 -7 23 -15 26 -8 4 -15 12 -15 19 0 7 -7 18 -15 25 -8 7 -15 21 -15 31 0 11 -5 19 -10 19 -6 0 -16 12 -23 28 -6 15 -16 30 -21 34 -16 11 -9 168 8 210 9 21 16 55 16 76 0 21 7 47 15 58 8 10 15 38 15 60 0 23 7 58 15 77 8 20 15 53 15 74 1 21 7 49 15 63 8 14 14 41 15 61 0 20 7 53 15 72 8 20 15 53 15 74 1 21 7 49 15 63 8 14 14 42 15 63 0 41 21 89 54 124 17 18 32 23 74 23 49 0 55 -3 95 -43 58 -60 97 -105 97 -115 0 -4 44 -53 98 -110 54 -56 116 -127 138 -157 21 -30 43 -55 48 -55 4 0 25 14 46 30 21 17 45 30 53 30 8 0 17 6 20 13 2 7 25 23 51 35 25 13 46 28 46 33 0 5 11 9 25 9 14 0 25 4 25 9 0 5 19 19 43 30 54 26 187 30 207 6 7 -8 19 -15 27 -15 8 0 32 -13 53 -30 21 -16 45 -30 53 -30 8 0 17 -7 21 -15 3 -8 13 -15 22 -15 9 0 33 -13 54 -30 21 -16 45 -30 53 -30 8 0 18 -7 21 -16 5 -13 21 -2 73 52 36 38 81 89 100 114 18 25 77 92 131 150 182 196 188 200 256 159z"/> <path d="M2215 2726 c-31 -43 -133 -164 -180 -212 -47 -48 -125 -143 -148 -181 -4 -7 9 -19 36 -33 23 -12 47 -27 52 -34 22 -28 57 -26 87 5 16 16 36 29 44 29 21 0 54 -84 54 -139 0 -26 7 -56 15 -67 16 -21 19 -72 6 -93 -8 -13 -15 -12 -50 4 -23 10 -41 22 -41 27 0 5 -10 12 -22 17 -13 5 -40 21 -61 35 -21 14 -44 26 -52 26 -8 0 -15 4 -15 9 0 5 -21 20 -46 33 -26 12 -49 28 -51 35 -3 7 -16 13 -29 13 -13 0 -24 4 -24 9 0 5 -21 20 -46 33 -26 12 -49 28 -51 35 -3 7 -13 13 -23 13 -10 0 -23 7 -30 15 -7 8 -19 15 -26 15 -8 0 -14 4 -14 10 0 5 -11 12 -24 16 -14 3 -27 12 -30 20 -3 8 -12 14 -21 14 -8 0 -34 13 -56 30 -23 16 -45 27 -50 24 -12 -7 -12 -2184 0 -2184 13 0 61 66 61 84 0 8 6 19 13 23 7 4 21 25 31 46 10 21 24 41 32 44 8 3 14 16 14 29 0 13 4 24 9 24 9 0 28 29 50 78 6 12 15 22 21 22 5 0 10 7 10 16 0 9 14 33 30 54 17 21 30 45 30 54 0 9 4 16 9 16 5 0 20 21 33 46 12 26 28 49 35 51 7 3 13 16 13 29 0 13 4 24 9 24 5 0 19 19 31 43 12 23 28 46 36 50 8 4 14 15 14 24 0 8 14 32 30 53 17 21 30 45 30 54 0 9 7 19 15 22 8 4 15 14 15 23 0 9 14 31 30 49 17 18 30 41 30 52 0 10 7 20 15 24 25 9 19 65 -9 87 -14 11 -32 34 -41 51 -20 41 -10 48 75 48 65 1 110 21 110 50 0 7 14 29 30 50 17 21 30 45 30 54 0 9 4 16 9 16 5 0 20 21 33 46 12 26 28 49 35 51 7 3 13 13 13 23 0 11 5 22 11 25 5 4 14 17 20 28 5 12 14 30 21 39 10 14 9 23 -5 47 -9 16 -17 50 -17 78 -1 26 -7 59 -15 73 -8 14 -14 48 -15 76 0 28 -6 59 -15 70 -8 10 -15 38 -15 62 0 23 -7 59 -15 79 -8 19 -15 57 -15 82 0 26 -7 56 -15 67 -8 10 -15 37 -15 59 0 22 -5 56 -11 75 -6 19 -14 54 -18 78 -4 32 -8 39 -16 28z m-565 -636 c0 -5 11 -12 25 -16 14 -3 25 -10 25 -15 0 -5 10 -13 23 -18 12 -5 39 -21 60 -35 21 -14 44 -26 52 -26 8 0 15 -4 15 -9 0 -5 21 -20 46 -33 26 -12 49 -28 51 -35 3 -7 13 -13 23 -13 10 0 23 -7 30 -15 7 -8 19 -15 26 -15 8 0 14 -4 14 -9 0 -5 10 -13 23 -17 54 -17 91 -95 52 -110 -8 -4 -15 -10 -15 -15 0 -5 -8 -18 -17 -29 -17 -19 -29 -20 -250 -20 -147 0 -234 4 -238 10 -8 12 -7 409 1 421 7 12 54 11 54 -1z m68 -639 c12 -11 22 -24 22 -30 0 -6 3 -11 8 -11 13 0 77 -64 91 -93 11 -21 12 -30 3 -39 -7 -7 -12 -22 -12 -35 0 -13 -4 -23 -9 -23 -5 0 -19 -19 -31 -42 -12 -24 -28 -47 -36 -51 -8 -4 -14 -15 -14 -24 0 -8 -13 -32 -30 -53 -16 -21 -30 -45 -30 -54 0 -9 -6 -19 -14 -22 -8 -3 -16 -14 -19 -25 -6 -24 -49 -26 -68 -3 -10 12 -10 20 -1 35 9 14 12 82 12 237 -1 119 2 225 5 235 10 24 92 23 123 -2z"/> <path d="M450 2672 c0 -10 -7 -27 -15 -38 -8 -10 -15 -41 -15 -69 0 -27 -7 -61 -15 -75 -8 -14 -14 -46 -15 -71 0 -29 -6 -51 -15 -59 -10 -8 -15 -31 -15 -64 0 -29 -7 -59 -15 -70 -9 -12 -15 -42 -15 -72 0 -34 -5 -56 -15 -64 -9 -8 -15 -30 -15 -60 0 -26 -7 -61 -15 -76 -20 -38 -20 -118 0 -134 8 -7 15 -20 15 -30 0 -10 6 -20 13 -23 6 -3 21 -22 32 -43 11 -22 25 -43 32 -47 7 -4 13 -16 13 -25 1 -9 14 -33 30 -52 17 -19 30 -42 30 -51 0 -9 7 -19 15 -23 8 -3 15 -14 15 -25 0 -11 6 -24 13 -28 17 -11 47 -59 47 -77 0 -7 7 -16 15 -20 8 -3 15 -14 15 -25 0 -11 6 -24 13 -28 15 -10 47 -58 47 -73 0 -5 9 -19 20 -30 11 -11 20 -27 20 -35 0 -8 5 -15 10 -15 6 0 10 -6 10 -14 0 -7 7 -19 15 -26 8 -7 15 -21 15 -31 0 -11 5 -19 10 -19 6 0 16 -12 23 -27 6 -16 16 -33 22 -40 5 -7 16 -19 23 -27 6 -8 12 -24 12 -35 0 -10 6 -21 13 -24 7 -2 23 -25 35 -51 13 -25 28 -46 33 -46 5 0 9 -10 9 -23 0 -12 9 -28 19 -34 19 -12 20 -8 20 160 -1 147 -3 174 -17 189 -33 34 -42 47 -42 67 0 10 -6 21 -13 24 -7 2 -23 25 -35 51 -13 25 -27 48 -33 51 -5 4 -9 12 -9 20 0 7 -14 28 -31 46 -20 22 -29 40 -27 58 l3 26 164 3 c91 1 168 -1 172 -5 4 -5 9 -224 10 -488 l2 -480 28 -36 c16 -20 29 -44 29 -52 0 -8 7 -17 15 -21 8 -3 15 -13 15 -22 0 -9 13 -33 30 -54 17 -21 30 -42 30 -47 0 -6 9 -18 19 -28 20 -17 20 -7 21 1093 0 654 -3 1113 -9 1116 -5 3 -20 -3 -34 -14 -14 -11 -28 -20 -31 -20 -3 0 -22 -12 -43 -26 -21 -14 -48 -30 -60 -35 -13 -5 -23 -13 -23 -19 0 -5 -7 -10 -16 -10 -9 0 -33 -13 -54 -30 -21 -16 -45 -30 -53 -30 -9 0 -20 -6 -24 -12 -9 -14 -37 -33 -70 -47 -11 -6 -24 -15 -28 -20 -3 -6 -14 -11 -25 -11 -10 0 -20 -6 -23 -13 -2 -7 -25 -23 -51 -35 -25 -13 -46 -28 -46 -33 0 -5 -9 -9 -20 -9 -11 0 -29 -8 -39 -17 -37 -34 -50 -43 -62 -43 -7 0 -21 -8 -31 -17 -17 -15 -20 -15 -28 -3 -14 23 -12 83 5 123 8 20 15 58 15 85 0 26 5 53 12 60 19 19 53 14 78 -13 l23 -25 33 25 c18 14 40 25 49 25 8 0 18 7 21 15 4 8 15 15 25 15 40 0 30 28 -33 92 -67 68 -93 97 -148 168 -42 54 -109 120 -121 120 -5 0 -9 -8 -9 -18z m625 -792 l0 -215 -243 -3 -242 -2 -12 25 c-6 14 -15 25 -20 25 -4 0 -8 8 -8 17 0 9 -7 24 -15 33 -14 16 -12 20 19 44 19 14 40 26 46 26 6 0 13 7 16 15 4 8 13 15 21 15 8 0 32 14 53 30 21 17 45 30 54 30 9 0 19 7 22 15 4 8 15 15 25 15 11 0 22 7 25 15 4 8 12 15 19 15 7 0 18 7 25 15 7 8 20 15 30 15 10 0 20 7 24 15 3 8 13 15 23 15 10 0 31 14 48 31 22 23 37 29 60 27 l30 -3 0 -215z"/> </g> 
 
 </svg> 